<?xml version="1.0" encoding="UTF-8"?> <svg xmlns="http://www.w3.org/2000/svg" width="180" height="49" fill="none"><g clip-path="url(#a)"><path d="M37.25 18.04h3.605v10.023c0 4.49-2.163 6.093-5.608 6.093-.801 0-1.922-.16-2.644-.4l.401-2.887c.48.16 1.122.32 1.843.32 1.521 0 2.403-.64 2.403-3.126V18.04ZM53.27 27.983c0 4.17-2.963 6.094-6.087 6.094-3.365 0-5.928-2.245-5.928-5.934 0-3.688 2.403-6.093 6.088-6.093 3.525 0 5.928 2.485 5.928 5.933Zm-8.33.08c0 2.005.8 3.448 2.323 3.448 1.362 0 2.243-1.363 2.243-3.448 0-1.684-.641-3.448-2.243-3.448-1.682 0-2.323 1.764-2.323 3.448ZM53.672 17.158h3.604v6.575h.08c.401-.48.882-.882 1.442-1.203.481-.32 1.202-.48 1.843-.48 2.243 0 4.005 1.603 4.005 5.05v6.736h-3.605v-6.334c0-1.524-.48-2.566-1.842-2.566-.961 0-1.522.641-1.762 1.283-.08.24-.08.561-.08.801v6.816h-3.685V17.158ZM65.688 25.978c0-1.443-.08-2.646-.08-3.688h3.124l.16 1.604a4.166 4.166 0 0 1 3.525-1.844c2.323 0 4.085 1.523 4.085 4.89v6.816h-3.605v-6.334c0-1.444-.48-2.486-1.842-2.486-.962 0-1.603.642-1.843 1.363-.08.24-.16.561-.16.882v6.655h-3.365v-7.858ZM80.908 30.148c.961.48 2.403.962 3.925.962 1.602 0 2.484-.642 2.484-1.684 0-.962-.721-1.523-2.644-2.245-2.644-.882-4.326-2.405-4.326-4.65 0-2.726 2.243-4.731 6.008-4.731 1.763 0 3.124.4 4.006.802l-.801 2.886c-.641-.32-1.763-.721-3.285-.721-1.522 0-2.323.721-2.323 1.523 0 1.042.881 1.443 2.964 2.245 2.804 1.043 4.085 2.486 4.085 4.73 0 2.647-2.002 4.892-6.408 4.892-1.843 0-3.605-.481-4.486-.962l.801-3.047ZM91.482 26.07v-3.78h3.124l.16 1.604h.08a4.166 4.166 0 0 1 3.525-1.844c2.323 0 4.086 1.523 4.086 4.89v6.816h-3.605v-6.334c0-1.444-.48-2.486-1.843-2.486-.961 0-1.602.642-1.842 1.363-.08.24-.16.561-.16.882v6.655h-3.605l.08-7.767ZM114.873 27.983c0 4.17-2.964 6.094-6.088 6.094-3.364 0-5.928-2.245-5.928-5.934 0-3.688 2.403-6.093 6.088-6.093 3.605 0 5.928 2.485 5.928 5.933Zm-8.331.08c0 2.005.801 3.448 2.323 3.448 1.362 0 2.243-1.363 2.243-3.448 0-1.684-.641-3.448-2.243-3.448-1.682 0-2.323 1.764-2.323 3.448ZM117.597 22.37l.881 4.73c.24 1.203.481 2.486.641 3.77h.08c.24-1.284.561-2.647.881-3.77l1.202-4.73h2.804l1.121 4.57c.321 1.283.641 2.566.881 3.93h.08c.161-1.284.401-2.647.641-3.93l.962-4.57h3.524l-3.524 11.466h-3.365l-1.041-4.01c-.321-1.122-.481-2.164-.721-3.607h-.08c-.241 1.443-.481 2.485-.721 3.608l-1.122 4.009h-3.364l-3.365-11.466h3.605Z" fill="#3E4095"></path><path d="M137.944 18.281h2.003v13.39h7.209v1.684h-9.212V18.28Z" fill="#0098DA"></path><path d="m149.88 28.544-1.763 4.81h-2.162l5.687-15.073h2.483l5.768 15.074h-2.243l-1.842-4.811h-5.928Zm5.607-1.523-1.682-4.49c-.32-.963-.641-1.764-.881-2.566h-.08c-.241.802-.481 1.603-.801 2.485l-1.683 4.57h5.127ZM159.973 18.522c.881-.16 2.403-.321 3.925-.321 2.163 0 3.445.32 4.406 1.122.801.642 1.362 1.524 1.362 2.727 0 1.443-1.041 2.726-2.643 3.287v.08c1.281.32 3.204 1.443 3.204 3.768a4.04 4.04 0 0 1-1.362 3.047c-1.121.962-2.884 1.444-5.607 1.444-1.442 0-2.564-.08-3.285-.16V18.521Zm2.083 6.174h2.083c2.243 0 3.444-1.043 3.444-2.486 0-1.844-1.522-2.486-3.524-2.486-1.042 0-1.683.08-2.003.16v4.811Zm0 7.135c.481.08 1.041.08 1.842.08 2.083 0 4.166-.64 4.166-2.966 0-2.085-1.842-2.887-4.166-2.887h-1.922v5.773h.08Z" fill="#0098DA"></path><path d="M170.627 30.87c.962.64 2.404 1.122 3.926 1.122 2.162 0 3.364-1.043 3.364-2.566 0-1.443-.801-2.245-3.124-2.967-2.884-.882-4.406-2.165-4.406-4.33 0-2.405 2.083-4.169 5.207-4.169 1.762 0 2.964.401 3.765.802l-.561 1.604c-.48-.321-1.682-.802-3.204-.802-2.243 0-3.124 1.283-3.124 2.245 0 1.363.961 2.084 3.284 2.806 2.804.882 4.246 2.085 4.246 4.49 0 2.245-1.682 4.41-5.608 4.41-1.602 0-3.364-.481-4.245-1.042l.48-1.604ZM21.709 34.397c0 4.33-3.525 7.858-7.85 7.858-4.326 0-7.851-3.528-7.851-7.858v-22.61L0 11.064v23.332c0 7.697 6.248 13.871 13.858 13.871s13.859-6.254 13.859-13.871V11.065l-6.008.721v22.611Z" fill="#0098DA"></path><path d="M15.54 17.159H8.332a.89.89 0 0 1-.881-.882V9.06c0-.48.4-.882.881-.882h7.21c.48 0 .88.401.88.882v7.217a.89.89 0 0 1-.88.882Z" fill="#3E4095"></path><path d="M19.786 21.97H14.74a.89.89 0 0 1-.882-.883v-5.051c0-.481.4-.882.882-.882h5.046c.48 0 .881.401.881.882v5.051c0 .562-.4.882-.88.882ZM19.146 9.381H15.54a.89.89 0 0 1-.881-.882V4.891c0-.481.4-.882.88-.882h3.606c.48 0 .88.4.88.882v3.608c-.08.481-.4.882-.88.882ZM13.137 3.368h-1.682a.89.89 0 0 1-.881-.882V.882c0-.481.4-.882.881-.882h1.682c.481 0 .882.4.882.882v1.684c0 .48-.401.802-.882.802Z" fill="#3E4095"></path><path d="M19.546 39.769H8.09v.16h11.455v-.16Z" fill="#ECF9FF"></path><path d="M19.546 39.529H8.09v.16h11.455v-.16Z" fill="#EBF9FF"></path><path d="M19.546 39.368H8.09v.16h11.455v-.16Z" fill="#EAF8FF"></path><path d="M19.546 39.208H8.09v.16h11.455v-.16Z" fill="#E9F8FF"></path><path d="M19.546 38.967H8.09v.16h11.455v-.16Z" fill="#E8F8FF"></path><path d="M19.546 38.807H8.09v.16h11.455v-.16Z" fill="#E7F7FF"></path><path d="M19.546 38.647H8.09v.16h11.455v-.16Z" fill="#E6F7FF"></path><path d="M19.546 38.486H8.09v.16h11.455v-.16Z" fill="#E5F7FF"></path><path d="M19.546 38.246H8.09v.16h11.455v-.16Z" fill="#E4F6FE"></path><path d="M19.546 38.085H8.09v.16h11.455v-.16Z" fill="#E3F6FE"></path><path d="M19.546 37.925H8.09v.16h11.455v-.16Z" fill="#E2F5FE"></path><path d="M19.546 37.684H8.09v.16h11.455v-.16Z" fill="#E1F5FE"></path><path d="M19.546 37.524H8.09v.16h11.455v-.16Z" fill="#E0F5FE"></path><path d="M19.546 37.364H8.09v.16h11.455v-.16Z" fill="#DFF4FE"></path><path d="M19.546 37.123H8.09v.16h11.455v-.16Z" fill="#DEF4FE"></path><path d="M19.546 36.963H8.09v.16h11.455v-.16Z" fill="#DDF4FE"></path><path d="M19.546 36.803H8.09v.16h11.455v-.16Z" fill="#DCF3FE"></path><path d="M19.546 36.562H8.09v.16h11.455v-.16Z" fill="#DBF3FE"></path><path d="M19.546 36.402H8.09v.16h11.455v-.16Z" fill="#DAF3FE"></path><path d="M19.546 36.241H8.09v.16h11.455v-.16Z" fill="#D9F2FE"></path><path d="M19.546 36.08H8.09v.161h11.455v-.16Z" fill="#D8F2FE"></path><path d="M19.546 35.84H8.09V36h11.455v-.16Z" fill="#D7F2FE"></path><path d="M19.546 35.68H8.09v.16h11.455v-.16Z" fill="#D6F1FE"></path><path d="M19.546 35.52H8.09v.16h11.455v-.16Z" fill="#D5F1FE"></path><path d="M19.546 35.28H8.09v.16h11.455v-.16Z" fill="#D4F1FD"></path><path d="M19.546 35.119H8.09v.16h11.455v-.16Z" fill="#D3F0FD"></path><path d="M19.546 34.958H8.09v.16h11.455v-.16Z" fill="#D2F0FD"></path><path d="M19.546 34.718H8.09v.16h11.455v-.16Z" fill="#D1F0FD"></path><path d="M19.546 34.557H8.09v.16h11.455v-.16Z" fill="#D0EFFD"></path><path d="M19.546 34.397H8.09v.16h11.455v-.16Z" fill="#CFEFFD"></path><path d="M19.546 34.157H8.09v.16h11.455v-.16Z" fill="#CEEEFD"></path><path d="M19.546 33.996H8.09v.16h11.455v-.16Z" fill="#CDEEFD"></path><path d="M19.546 33.836H8.09v.16h11.455v-.16Z" fill="#CCEEFD"></path><path d="M19.546 33.675H8.09v.16h11.455v-.16Z" fill="#CBEDFD"></path><path d="M19.546 33.435H8.09v.16h11.455v-.16Z" fill="#CAEDFD"></path><path d="M19.546 33.274H8.09v.16h11.455v-.16Z" fill="#C9EDFD"></path><path d="M19.546 33.114H8.09v.16h11.455v-.16Z" fill="#C8ECFD"></path><path d="M19.546 32.873H8.09v.16h11.455v-.16Z" fill="#C7ECFD"></path><path d="M19.546 32.713H8.09v.16h11.455v-.16Z" fill="#C6ECFD"></path><path d="M19.546 32.553H8.09v.16h11.455v-.16Z" fill="#C4EBFC"></path><path d="M19.546 32.312H8.09v.16h11.455v-.16Z" fill="#C3EBFC"></path><path d="M19.546 32.152H8.09v.16h11.455v-.16Z" fill="#C2EBFC"></path><path d="M19.546 31.992H8.09v.16h11.455v-.16Z" fill="#C1EAFC"></path><path d="M19.546 31.751H8.09v.16h11.455v-.16Z" fill="#C0EAFC"></path><path d="M19.546 31.59H8.09v.161h11.455v-.16Z" fill="#BFEAFC"></path><path d="M19.546 31.43H8.09v.16h11.455v-.16Z" fill="#BEE9FC"></path><path d="M19.546 31.27H8.09v.16h11.455v-.16Z" fill="#BDE9FC"></path><path d="M19.546 31.03H8.09v.16h11.455v-.16Z" fill="#BCE9FC"></path><path d="M19.546 30.87H8.09v.16h11.455v-.16Z" fill="#BBE8FC"></path><path d="M19.546 30.709H8.09v.16h11.455v-.16Z" fill="#BAE8FC"></path><path d="M19.546 30.468H8.09v.16h11.455v-.16Z" fill="#B9E7FC"></path><path d="M19.546 30.308H8.09v.16h11.455v-.16Z" fill="#B8E7FC"></path><path d="M19.546 30.148H8.09v.16h11.455v-.16Z" fill="#B7E7FC"></path><path d="M19.546 29.907H8.09v.16h11.455v-.16Z" fill="#B6E6FC"></path><path d="M19.546 29.747H8.09v.16h11.455v-.16Z" fill="#B5E6FB"></path><path d="M19.546 29.586H8.09v.16h11.455v-.16Z" fill="#B4E6FB"></path><path d="M19.546 29.346H8.09v.16h11.455v-.16Z" fill="#B3E5FB"></path><path d="M19.546 29.185H8.09v.16h11.455v-.16Z" fill="#B2E5FB"></path><path d="M19.546 29.025H8.09v.16h11.455v-.16Z" fill="#B1E5FB"></path><path d="M19.546 28.865H8.09v.16h11.455v-.16Z" fill="#B0E4FB"></path><path d="M19.546 28.624H8.09v.16h11.455v-.16Z" fill="#AFE4FB"></path><path d="M19.546 28.464H8.09v.16h11.455v-.16Z" fill="#AEE4FB"></path><path d="M19.546 28.303H8.09v.16h11.455v-.16Z" fill="#ADE3FB"></path><path d="M19.546 28.063H8.09v.16h11.455v-.16Z" fill="#ACE3FB"></path><path d="M19.546 27.902H8.09v.16h11.455v-.16Z" fill="#ABE3FB"></path><path d="M19.546 27.742H8.09v.16h11.455v-.16Z" fill="#AAE2FB"></path><path d="M19.546 27.502H8.09v.16h11.455v-.16Z" fill="#A9E2FB"></path><path d="M19.546 27.341H8.09v.16h11.455v-.16Z" fill="#A8E2FB"></path><path d="M19.546 27.18H8.09v.161h11.455v-.16Z" fill="#A7E1FB"></path><path d="M19.546 26.94H8.09v.16h11.455v-.16Z" fill="#A6E1FB"></path><path d="M19.546 26.78H8.09v.16h11.455v-.16Z" fill="#A5E0FA"></path><path d="M19.546 26.62H8.09v.16h11.455v-.16Z" fill="#A4E0FA"></path><path d="M19.546 26.46H8.09v.16h11.455v-.16Z" fill="#A3E0FA"></path><path d="M19.546 26.219H8.09v.16h11.455v-.16Z" fill="#A2DFFA"></path><path d="M19.546 26.058H8.09v.16h11.455v-.16Z" fill="#A1DFFA"></path><path d="M19.546 25.898H8.09v.16h11.455v-.16Z" fill="#A0DFFA"></path><path d="M19.546 25.657H8.09v.16h11.455v-.16Z" fill="#9FDEFA"></path><path d="M19.546 25.497H8.09v.16h11.455v-.16Z" fill="#9EDEFA"></path></g><defs><clipPath id="a"><path fill="#fff" d="M0 0h180v48.268H0z"></path></clipPath></defs></svg> 